<svg width="245" height="47" viewBox="0 0 245 47" fill="none" xmlns="http://www.w3.org/2000/svg">
<path d="M64.3938 35.0866C62.8071 35.0866 61.4131 34.6786 60.2118 33.8626C59.0105 33.0466 58.0698 31.9586 57.3898 30.5986C56.7098 29.2159 56.3698 27.7086 56.3698 26.0766C56.3698 24.3539 56.7211 22.8012 57.4238 21.4186C58.1265 20.0132 59.1011 18.9026 60.3478 18.0866C61.5945 17.2706 63.0338 16.8626 64.6658 16.8626C66.0485 16.8626 67.2611 17.1799 68.3038 17.8146C69.3465 18.4266 70.2078 19.2539 70.8878 20.2966V17.1686H74.8658V34.1346C74.8658 35.9026 74.4351 37.4099 73.5738 38.6566C72.7351 39.9259 71.5678 40.8892 70.0718 41.5466C68.5758 42.2266 66.8758 42.5666 64.9718 42.5666C63.0225 42.5666 61.3791 42.2379 60.0418 41.5806C58.7271 40.9459 57.5938 40.0392 56.6418 38.8606L59.1238 36.4466C59.8038 37.2852 60.6538 37.9426 61.6738 38.4186C62.7165 38.8946 63.8158 39.1326 64.9718 39.1326C65.9238 39.1326 66.7965 38.9512 67.5898 38.5886C68.4058 38.2486 69.0631 37.7046 69.5618 36.9566C70.0605 36.2312 70.3098 35.2906 70.3098 34.1346V31.8906C69.7205 32.9106 68.8818 33.7039 67.7938 34.2706C66.7285 34.8146 65.5951 35.0866 64.3938 35.0866ZM65.9238 31.4486C66.9211 31.4486 67.8165 31.1539 68.6098 30.5646C69.4258 29.9752 69.9925 29.2726 70.3098 28.4566V24.2066C69.9018 23.1639 69.2558 22.3252 68.3718 21.6906C67.5105 21.0559 66.6038 20.7386 65.6518 20.7386C64.7225 20.7386 63.9065 20.9992 63.2038 21.5206C62.5238 22.0419 61.9911 22.7219 61.6058 23.5606C61.2205 24.3766 61.0278 25.2606 61.0278 26.2126C61.0278 27.1872 61.2431 28.0712 61.6738 28.8646C62.1045 29.6579 62.6825 30.2926 63.4078 30.7686C64.1558 31.2219 64.9945 31.4486 65.9238 31.4486ZM87.2346 35.3246C85.308 35.3246 83.642 34.9052 82.2366 34.0666C80.854 33.2279 79.7773 32.1172 79.0066 30.7346C78.236 29.3292 77.8506 27.8106 77.8506 26.1786C77.8506 24.5012 78.2246 22.9599 78.9726 21.5546C79.7433 20.1266 80.8313 18.9932 82.2366 18.1546C83.642 17.2932 85.3193 16.8626 87.2686 16.8626C89.218 16.8626 90.884 17.2932 92.2666 18.1546C93.6493 18.9932 94.7033 20.1152 95.4286 21.5206C96.1766 22.9032 96.5506 24.3992 96.5506 26.0086C96.5506 26.5979 96.5166 27.1079 96.4486 27.5386H82.6786C82.792 28.9212 83.302 30.0092 84.2086 30.8026C85.138 31.5959 86.2033 31.9926 87.4046 31.9926C88.3113 31.9926 89.1613 31.7772 89.9546 31.3466C90.7706 30.8932 91.326 30.3039 91.6206 29.5786L95.5306 30.6666C94.8733 32.0266 93.8193 33.1486 92.3686 34.0326C90.918 34.8939 89.2066 35.3246 87.2346 35.3246ZM82.5766 24.6486H91.8926C91.7566 23.3112 91.2466 22.2346 90.3626 21.4186C89.5013 20.5799 88.4473 20.1606 87.2006 20.1606C85.9766 20.1606 84.9226 20.5799 84.0386 21.4186C83.1773 22.2346 82.69 23.3112 82.5766 24.6486ZM107.554 35.3246C105.605 35.3246 103.927 34.9052 102.522 34.0666C101.139 33.2052 100.074 32.0719 99.3261 30.6666C98.5781 29.2612 98.2041 27.7426 98.2041 26.1106C98.2041 24.4559 98.5781 22.9259 99.3261 21.5206C100.097 20.1152 101.173 18.9932 102.556 18.1546C103.961 17.2932 105.627 16.8626 107.554 16.8626C109.481 16.8626 111.135 17.2932 112.518 18.1546C113.923 18.9932 115 20.1152 115.748 21.5206C116.496 22.9259 116.87 24.4559 116.87 26.1106C116.87 27.7426 116.496 29.2612 115.748 30.6666C115 32.0719 113.923 33.2052 112.518 34.0666C111.135 34.9052 109.481 35.3246 107.554 35.3246ZM102.896 26.1106C102.896 27.1532 103.1 28.0826 103.508 28.8986C103.916 29.6919 104.471 30.3152 105.174 30.7686C105.877 31.2219 106.67 31.4486 107.554 31.4486C108.415 31.4486 109.197 31.2219 109.9 30.7686C110.603 30.2926 111.158 29.6579 111.566 28.8646C111.997 28.0486 112.212 27.1192 112.212 26.0766C112.212 25.0566 111.997 24.1499 111.566 23.3566C111.158 22.5406 110.603 21.9059 109.9 21.4526C109.197 20.9766 108.415 20.7386 107.554 20.7386C106.67 20.7386 105.877 20.9766 105.174 21.4526C104.471 21.9059 103.916 22.5406 103.508 23.3566C103.1 24.1499 102.896 25.0679 102.896 26.1106ZM132.049 33.9986C131.143 34.3839 130.168 34.7126 129.125 34.9846C128.105 35.2339 127.097 35.3586 126.099 35.3586C125.125 35.3586 124.229 35.1999 123.413 34.8826C122.597 34.5426 121.94 33.9986 121.441 33.2506C120.965 32.4799 120.727 31.4486 120.727 30.1566V21.9626H118.517V17.1006H120.727V11.4906H127.187V17.1006H130.689V21.9626H127.187V27.8786C127.187 28.4679 127.312 28.8872 127.561 29.1366C127.811 29.3632 128.151 29.4766 128.581 29.4766C128.899 29.4766 129.261 29.4199 129.669 29.3066C130.077 29.1932 130.485 29.0572 130.893 28.8986L132.049 33.9986ZM133.88 15.6046V10.1646H140.34V15.6046H133.88ZM133.88 34.9846V17.1006H140.34V34.9846H133.88ZM152.415 35.3246C150.329 35.3246 148.55 34.9052 147.077 34.0666C145.626 33.2279 144.515 32.1172 143.745 30.7346C142.997 29.3519 142.623 27.8672 142.623 26.2806C142.623 24.5579 142.997 22.9826 143.745 21.5546C144.493 20.1039 145.592 18.9479 147.043 18.0866C148.493 17.2026 150.284 16.7606 152.415 16.7606C154.545 16.7606 156.336 17.1912 157.787 18.0526C159.237 18.9139 160.337 20.0472 161.085 21.4526C161.833 22.8579 162.207 24.3879 162.207 26.0426C162.207 26.7452 162.15 27.4026 162.037 28.0146H149.491C149.559 28.9666 149.91 29.6579 150.545 30.0886C151.179 30.4966 151.871 30.7006 152.619 30.7006C153.321 30.7006 153.979 30.5419 154.591 30.2246C155.225 29.9072 155.645 29.4652 155.849 28.8986L161.323 30.4626C160.597 31.8906 159.475 33.0579 157.957 33.9646C156.438 34.8712 154.591 35.3246 152.415 35.3246ZM149.355 24.1386H155.271C155.18 23.2772 154.863 22.5972 154.319 22.0986C153.797 21.5999 153.129 21.3506 152.313 21.3506C151.497 21.3506 150.828 21.5999 150.307 22.0986C149.785 22.5972 149.468 23.2772 149.355 24.1386ZM182.313 34.9846H175.853V24.9206C175.853 24.0366 175.649 23.4019 175.241 23.0166C174.856 22.6086 174.403 22.4046 173.881 22.4046C173.337 22.4046 172.759 22.6426 172.147 23.1186C171.535 23.5946 171.082 24.2066 170.787 24.9546V34.9846H164.327V17.1006H170.141V19.7526C170.776 18.7779 171.671 18.0412 172.827 17.5426C173.983 17.0212 175.332 16.7606 176.873 16.7606C178.097 16.7606 179.072 16.9759 179.797 17.4066C180.523 17.8372 181.067 18.3926 181.429 19.0726C181.792 19.7526 182.03 20.4666 182.143 21.2146C182.257 21.9399 182.313 22.6086 182.313 23.2206V34.9846ZM184.493 26.0086C184.493 24.2406 184.821 22.6652 185.479 21.2826C186.159 19.8772 187.088 18.7779 188.267 17.9846C189.445 17.1686 190.794 16.7606 192.313 16.7606C193.469 16.7606 194.534 17.0326 195.509 17.5766C196.483 18.0979 197.22 18.8232 197.719 19.7526V10.1646H204.179V27.8446C204.179 28.4566 204.269 28.8872 204.451 29.1366C204.632 29.3632 204.949 29.4992 205.403 29.5446V34.9846C204.292 35.2112 203.385 35.3246 202.683 35.3246C200.484 35.3246 199.215 34.4972 198.875 32.8426L198.739 32.1966C198.127 33.2846 197.299 34.0779 196.257 34.5766C195.214 35.0752 194.103 35.3246 192.925 35.3246C191.293 35.3246 189.842 34.9279 188.573 34.1346C187.303 33.3412 186.306 32.2419 185.581 30.8366C184.855 29.4312 184.493 27.8219 184.493 26.0086ZM197.753 28.0486V24.8526C197.458 24.0592 196.993 23.4246 196.359 22.9486C195.747 22.4499 195.101 22.2006 194.421 22.2006C193.491 22.2006 192.709 22.5859 192.075 23.3566C191.463 24.1272 191.157 25.0566 191.157 26.1446C191.157 27.2552 191.485 28.1619 192.143 28.8646C192.8 29.5446 193.65 29.8846 194.693 29.8846C195.894 29.8846 196.914 29.2726 197.753 28.0486ZM207.07 29.5786C207.07 28.3772 207.399 27.3232 208.056 26.4166C208.713 25.4872 209.62 24.7619 210.776 24.2406C211.955 23.7192 213.292 23.4586 214.788 23.4586C216.239 23.4586 217.44 23.6852 218.392 24.1386V23.5946C218.392 22.7559 218.143 22.1326 217.644 21.7246C217.168 21.3166 216.386 21.1126 215.298 21.1126C214.301 21.1126 213.36 21.2826 212.476 21.6226C211.615 21.9399 210.708 22.4159 209.756 23.0506L207.886 19.0386C210.243 17.5199 212.929 16.7606 215.944 16.7606C218.777 16.7606 220.965 17.4066 222.506 18.6986C224.07 19.9679 224.852 21.8606 224.852 24.3766V27.8446C224.852 28.4566 224.943 28.8872 225.124 29.1366C225.305 29.3632 225.623 29.4992 226.076 29.5446V34.9846C225.555 35.0979 225.056 35.1772 224.58 35.2226C224.127 35.2906 223.719 35.3246 223.356 35.3246C222.2 35.3246 221.316 35.1206 220.704 34.7126C220.115 34.2819 219.729 33.6586 219.548 32.8426L219.412 32.1966C217.78 34.2819 215.751 35.3246 213.326 35.3246C212.147 35.3246 211.082 35.0752 210.13 34.5766C209.178 34.0779 208.43 33.3979 207.886 32.5366C207.342 31.6526 207.07 30.6666 207.07 29.5786ZM217.542 30.0206C218.109 29.6352 218.392 29.2159 218.392 28.7626V27.4366C218.029 27.3006 217.61 27.1872 217.134 27.0966C216.681 27.0059 216.273 26.9606 215.91 26.9606C215.139 26.9606 214.482 27.1532 213.938 27.5386C213.417 27.9239 213.156 28.4112 213.156 29.0006C213.156 29.4992 213.349 29.9072 213.734 30.2246C214.142 30.5419 214.652 30.7006 215.264 30.7006C216.103 30.7006 216.862 30.4739 217.542 30.0206ZM235.584 35.3246C234.02 35.3246 232.478 35.0752 230.96 34.5766C229.464 34.0552 228.194 33.3072 227.152 32.3326L229.362 28.3546C230.472 29.0799 231.538 29.6466 232.558 30.0546C233.6 30.4626 234.541 30.6666 235.38 30.6666C236.309 30.6666 236.774 30.3946 236.774 29.8506C236.774 29.5559 236.581 29.3179 236.196 29.1366C235.833 28.9552 235.244 28.7399 234.428 28.4906C233.022 27.9919 231.844 27.5272 230.892 27.0966C229.962 26.6659 229.26 26.1446 228.784 25.5326C228.33 24.8979 228.104 24.0592 228.104 23.0166C228.104 21.1806 228.784 19.6732 230.144 18.4946C231.504 17.3159 233.385 16.7266 235.788 16.7266C236.989 16.7266 238.19 16.9192 239.392 17.3046C240.616 17.6672 241.794 18.3359 242.928 19.3106L240.48 23.2546C239.346 22.5519 238.383 22.0532 237.59 21.7586C236.819 21.4639 236.128 21.3166 235.516 21.3166C234.564 21.3166 234.088 21.6339 234.088 22.2686C234.088 22.6086 234.269 22.8692 234.632 23.0506C234.994 23.2319 235.572 23.4359 236.366 23.6626C237.907 24.1159 239.165 24.5806 240.14 25.0566C241.114 25.5099 241.828 26.0652 242.282 26.7226C242.758 27.3799 242.996 28.2412 242.996 29.3066C242.996 31.1879 242.327 32.6612 240.99 33.7266C239.675 34.7919 237.873 35.3246 235.584 35.3246Z" fill="#262222"/>
<path d="M14.2371 44.0345H7.03712C4.13712 44.0345 1.93712 41.5264 2.23712 38.7173L4.33712 17.6489C4.63712 15.1407 6.63712 13.2346 9.13712 13.2346H16.2371C13.7371 13.2346 11.6371 15.1407 11.4371 17.6489L9.43712 38.8176C9.23712 41.5264 11.4371 44.0345 14.2371 44.0345Z" stroke="#19BBDE" stroke-width="4"/>
<path d="M40.337 38.8346C40.537 41.6346 38.337 44.0346 35.537 44.0346H14.237C11.437 44.0346 9.13702 41.5346 9.43702 38.7346L11.437 17.6346C11.637 15.1346 13.737 13.2346 16.237 13.2346H33.937C36.437 13.2346 38.537 15.2346 38.737 17.7346L40.337 38.8346Z" stroke="#19BBDE" stroke-width="4"/>
<path d="M28.9371 6.83457C26.0371 1.63457 18.5371 1.63457 15.6371 6.83457" stroke="#19BBDE" stroke-width="4"/>
<path d="M29.7371 44.0346H20.8371C20.4371 44.0346 20.1371 43.7346 20.1371 43.3346V36.9346C20.1371 36.5346 20.4371 36.2346 20.8371 36.2346H29.7371C30.1371 36.2346 30.4371 36.5346 30.4371 36.9346V43.3346C30.4371 43.7346 30.0371 44.0346 29.7371 44.0346Z" stroke="#19BBDE" stroke-width="4"/>
</svg>
