<svg width="245" height="47" viewBox="0 0 245 47" fill="none" xmlns="http://www.w3.org/2000/svg">
<path d="M14.7613 44.0345H7.56129C4.66129 44.0345 2.46129 41.5264 2.76129 38.7173L4.86129 17.6489C5.16129 15.1407 7.16129 13.2346 9.66129 13.2346H16.7613C14.2613 13.2346 12.1613 15.1407 11.9613 17.6489L9.96129 38.8176C9.76129 41.5264 11.9613 44.0345 14.7613 44.0345Z" stroke="#262222" stroke-width="4"/>
<path d="M40.8612 38.8346C41.0612 41.6346 38.8612 44.0346 36.0612 44.0346H14.7612C11.9612 44.0346 9.66119 41.5346 9.96119 38.7346L11.9612 17.6346C12.1612 15.1346 14.2612 13.2346 16.7612 13.2346H34.4612C36.9612 13.2346 39.0612 15.2346 39.2612 17.7346L40.8612 38.8346Z" stroke="#262222" stroke-width="4"/>
<path d="M29.4613 6.83457C26.5613 1.63457 19.0613 1.63457 16.1613 6.83457" stroke="#262222" stroke-width="4"/>
<path d="M30.2613 44.0346H21.3613C20.9613 44.0346 20.6613 43.7346 20.6613 43.3346V36.9346C20.6613 36.5346 20.9613 36.2346 21.3613 36.2346H30.2613C30.6613 36.2346 30.9613 36.5346 30.9613 36.9346V43.3346C30.9613 43.7346 30.5613 44.0346 30.2613 44.0346Z" stroke="#262222" stroke-width="4"/>
</svg>
