<?xml version="1.0" encoding="UTF-8"?> <!-- Generator: Adobe Illustrator 23.0.3, SVG Export Plug-In . SVG Version: 6.00 Build 0) --> <svg xmlns="http://www.w3.org/2000/svg" xmlns:xlink="http://www.w3.org/1999/xlink" id="Layer_1" x="0px" y="0px" viewBox="0 0 993 777" style="enable-background:new 0 0 993 777;" xml:space="preserve"> <style type="text/css"> .st0{fill:#E5EDFD;} .st1{clip-path:url(#SVGID_2_);} .st2{fill:#F1F6FF;} .st3{fill:url(#SVGID_3_);} .st4{fill:none;stroke:url(#SVGID_4_);stroke-width:2;stroke-miterlimit:10;} .st5{fill:url(#SVGID_5_);} .st6{fill:none;stroke:url(#SVGID_6_);stroke-width:2;stroke-miterlimit:10;} .st7{fill:url(#SVGID_7_);} .st8{fill:none;stroke:url(#SVGID_8_);stroke-width:2;stroke-miterlimit:10;} .st9{fill:url(#SVGID_9_);} .st10{fill:none;stroke:url(#SVGID_10_);stroke-width:2;stroke-miterlimit:10;} .st11{fill:url(#SVGID_11_);} .st12{fill:none;stroke:url(#SVGID_12_);stroke-width:2;stroke-miterlimit:10;} .st13{fill:#F8FBFF;} .st14{fill:#D4E6FF;} .st15{fill:#6CACEA;} .st16{clip-path:url(#SVGID_14_);fill:#B3CAFC;} .st17{clip-path:url(#SVGID_14_);fill:#B2C9FC;} .st18{clip-path:url(#SVGID_14_);fill:#B1C9FC;} .st19{clip-path:url(#SVGID_14_);fill:#B0C8FC;} .st20{clip-path:url(#SVGID_14_);fill:#AFC7FC;} .st21{clip-path:url(#SVGID_14_);fill:#AEC7FC;} .st22{clip-path:url(#SVGID_14_);fill:#ADC6FC;} .st23{clip-path:url(#SVGID_14_);fill:#ACC5FC;} .st24{clip-path:url(#SVGID_14_);fill:#ABC5FC;} .st25{clip-path:url(#SVGID_14_);fill:#AAC4FC;} .st26{clip-path:url(#SVGID_14_);fill:#A9C3FC;} .st27{clip-path:url(#SVGID_14_);fill:#A8C3FC;} .st28{clip-path:url(#SVGID_14_);fill:#A7C2FC;} .st29{clip-path:url(#SVGID_14_);fill:#A6C1FC;} .st30{clip-path:url(#SVGID_14_);fill:#A5C1FC;} .st31{clip-path:url(#SVGID_14_);fill:#A4C0FC;} .st32{clip-path:url(#SVGID_14_);fill:#A3BFFC;} .st33{clip-path:url(#SVGID_14_);fill:#A2BFFC;} .st34{clip-path:url(#SVGID_14_);fill:#A1BEFC;} .st35{clip-path:url(#SVGID_14_);fill:#A0BDFC;} .st36{clip-path:url(#SVGID_14_);fill:#9EBDFB;} .st37{clip-path:url(#SVGID_14_);fill:#9DBCFB;} .st38{clip-path:url(#SVGID_14_);fill:#9CBBFB;} .st39{clip-path:url(#SVGID_14_);fill:#9BBBFB;} .st40{clip-path:url(#SVGID_14_);fill:#9ABAFB;} .st41{clip-path:url(#SVGID_14_);fill:#99B9FB;} .st42{clip-path:url(#SVGID_14_);fill:#98B9FB;} .st43{clip-path:url(#SVGID_14_);fill:#97B8FB;} .st44{clip-path:url(#SVGID_14_);fill:#96B7FB;} .st45{clip-path:url(#SVGID_14_);fill:#95B7FB;} .st46{clip-path:url(#SVGID_14_);fill:#94B6FB;} .st47{clip-path:url(#SVGID_14_);fill:#93B5FB;} .st48{clip-path:url(#SVGID_14_);fill:#92B5FB;} .st49{clip-path:url(#SVGID_14_);fill:#91B4FB;} .st50{clip-path:url(#SVGID_14_);fill:#90B3FB;} .st51{clip-path:url(#SVGID_14_);fill:#8FB3FB;} .st52{clip-path:url(#SVGID_14_);fill:#8EB2FB;} .st53{clip-path:url(#SVGID_14_);fill:#8DB1FB;} .st54{clip-path:url(#SVGID_14_);fill:#8CB1FB;} .st55{clip-path:url(#SVGID_14_);fill:#8BB0FB;} .st56{fill:#FFFFFF;} .st57{fill:none;stroke:#6CACEA;stroke-width:4;stroke-linecap:round;stroke-linejoin:round;stroke-miterlimit:10;} .st58{fill:url(#SVGID_15_);} .st59{fill:url(#SVGID_16_);} .st60{fill:url(#SVGID_17_);} .st61{fill:none;stroke:url(#SVGID_18_);stroke-width:1.4;stroke-linecap:round;stroke-linejoin:round;stroke-miterlimit:10;} .st62{fill:none;stroke:url(#SVGID_19_);stroke-width:1.4;stroke-linecap:round;stroke-linejoin:round;stroke-miterlimit:10;} .st63{fill:none;stroke:url(#SVGID_20_);stroke-width:1.4;stroke-linecap:round;stroke-linejoin:round;stroke-miterlimit:10;} .st64{fill:url(#SVGID_21_);} .st65{fill:#4B84FA;} .st66{fill:url(#SVGID_22_);} .st67{fill:#FCC7C3;} .st68{fill:url(#SVGID_23_);} .st69{fill:url(#SVGID_24_);} .st70{fill:#D1D5E0;} .st71{fill:url(#SVGID_25_);} .st72{fill:url(#SVGID_26_);} .st73{fill:url(#SVGID_27_);} .st74{fill:url(#SVGID_28_);} .st75{fill:url(#SVGID_29_);} .st76{fill:#B0D5F4;} .st77{fill:#826962;} .st78{fill:#FFBA4E;} .st79{fill:#3546AA;} .st80{fill:url(#SVGID_30_);} .st81{fill:url(#SVGID_31_);} .st82{fill:url(#SVGID_32_);} .st83{fill:url(#SVGID_33_);} .st84{fill:url(#SVGID_34_);} .st85{fill:url(#SVGID_35_);} .st86{fill:#FAC6B8;} .st87{fill:url(#SVGID_36_);} .st88{fill:url(#SVGID_37_);} .st89{fill:url(#SVGID_38_);} .st90{fill:url(#SVGID_39_);} .st91{fill:url(#SVGID_40_);} .st92{fill:url(#SVGID_41_);} .st93{fill:url(#SVGID_42_);} .st94{fill:url(#SVGID_43_);} .st95{fill:url(#SVGID_44_);} </style> <path class="st0" d="M34.8,316.1c0,0,50.8-52.8,44.2-122.2C72.3,124.4,188.1,27.3,411.8,16.2s471-19.3,550.5,129.5 s-46,212.5-4.1,286.5c55.2,97.5,8.6,310.6-114,315c-122.6,4.4-765.3,50.9-809.4-104.8S-0.3,374.1,34.8,316.1z"></path> <g> <defs> <path id="SVGID_1_" d="M34.8,316.1c0,0,50.8-52.8,44.2-122.2C72.3,124.4,188.1,27.3,411.8,16.2s471-19.3,550.5,129.5 s-46,212.5-4.1,286.5c55.2,97.5,8.6,310.6-114,315c-122.6,4.4-765.3,50.9-809.4-104.8S-0.3,374.1,34.8,316.1z"></path> </defs> <clipPath id="SVGID_2_"> <use xlink:href="#SVGID_1_" style="overflow:visible;"></use> </clipPath> <g class="st1"> <polygon class="st2" points="199.6,-3.8 -82.4,727.6 88.4,734.4 364,6.4 "></polygon> <polygon class="st2" points="561.8,-85 230.4,774.3 431,782.3 754.9,-73 "></polygon> <polygon class="st2" points="925.5,74.8 643.5,806.2 814.2,813 1089.9,85.1 "></polygon> </g> </g> <g> <linearGradient id="SVGID_3_" gradientUnits="userSpaceOnUse" x1="80.6139" y1="801.3632" x2="266.456" y2="801.3632" gradientTransform="matrix(0.986 -0.167 0.167 0.986 -56.1059 -428.0485)"> <stop offset="0" style="stop-color:#C5CBFF"></stop> <stop offset="1" style="stop-color:#99C0FF;stop-opacity:0.5"></stop> </linearGradient> <path class="st3" d="M317.3,476.4c-30.8-11.6-56.1-21-78.4-44.4c-2.1-2.2-1.3,9.5,31.3-16.1c-2-2.4-16.4-6.7-43.6,1 c-25.7-36.5-37.3-61.7-40.8-84.9c-3.5-23.3-5.6-43.4-6.7-49c18.5-1.8,38.5-5.8,43.5-8.7c-8.1-1.7-36.7,4-43.9,2.4 c-2.6-7.9-3.7-18.8-12.9-34.8c-9.1-15.9-25.8-36.9-34-43.7c17.2-6.4,54.8-2.5,78.3,7.4s44.4,23.5,47,26.4 c1.6,5.1-4.3,18.9-7.2,22.6c8.6-1.3,23-9.7,24.8-10.2c13.4,15.7,74,81.5,75.2,136c-6.2,4.8-14.8,18.1-17.3,23.2 c4.4,2.9,10.9,1.6,21.8-3.7c-4.3,20.3-7.2,28.4-15.3,44.9c-6.4,13.1-11.1,24.7-14.6,28.1c-1.5,1.4-3,3-5.1,3.6L317.3,476.4z"></path> <linearGradient id="SVGID_4_" gradientUnits="userSpaceOnUse" x1="450.0562" y1="583.6219" x2="540.7714" y2="596.5089" gradientTransform="matrix(-0.9423 1.0448 0.9089 0.8197 165.2814 -672.3877)"> <stop offset="0" style="stop-color:#CFDDFB"></stop> <stop offset="1" style="stop-color:#709BF5"></stop> </linearGradient> <path class="st4" d="M158.6,205.1c11.5,9.7,60.4,46.7,83.2,73.9s47.2,74.5,56.5,112.2c9.3,37.7,11.7,61.4,11.7,61.4"></path> <linearGradient id="SVGID_5_" gradientUnits="userSpaceOnUse" x1="64.8832" y1="429.9873" x2="277.5323" y2="429.9873" gradientTransform="matrix(0.9791 -0.2032 0.2032 0.9791 -21.2541 21.0182)"> <stop offset="0" style="stop-color:#B3CAFC"></stop> <stop offset="1" style="stop-color:#8BB0FB"></stop> </linearGradient> <path class="st5" d="M341.7,483.7c-26.4,2-46.5,5.8-70.7-3.7c-2.3-0.9,2.3,7.4,17.4-22.3c-2.3-1.1-14.3,0.6-31.5,15.5 c-31.1-17.9-48.1-32.3-58.6-48.1c-10.4-15.8-18.8-29.8-21.5-33.5c12.9-7.6,26.1-17.3,28.8-21.1c-6.5,1.5-25.4,15.3-31.3,16.6 c-4.6-4.9-10.6-14.6-22.8-23.2c-12-8.5-31.4-18.2-39.6-20.3c10.4-10.5,39.1-20.4,59.7-21.1s40.3,2.1,43.3,3.4 c2.9,3.2,4.9,17.3,4,21.1c5.8-3.9,13.5-14.9,14.6-15.9c15.1,6.9,81.6,34.4,101,73.7c-2.9,5.6-4.6,18.2-4.8,22.8 c4.2,0.6,8.5-2.5,14.7-10.1c3.8,16.3,4.3,23.1,4,38c-0.2,11.8-1.3,19.7-2.7,23.3c-0.7,1.5-1.2,3.2-2.5,4.4L341.7,483.7z"></path> <linearGradient id="SVGID_6_" gradientUnits="userSpaceOnUse" x1="293.0169" y1="345.4488" x2="369.8325" y2="356.3611" gradientTransform="matrix(-0.4143 1.3445 1.1696 0.3604 -40.4135 -165.3215)"> <stop offset="0" style="stop-color:#CFDDFB"></stop> <stop offset="1" style="stop-color:#709BF5"></stop> </linearGradient> <path class="st6" d="M134,339.6c11.6,3.2,61.5,15.7,87.3,27.8c25.8,12.1,59.7,38.3,79.2,62.7s30.1,44.1,30.1,44.1"></path> </g> <g> <linearGradient id="SVGID_7_" gradientUnits="userSpaceOnUse" x1="4952.9375" y1="1594.7139" x2="5102.7935" y2="1594.7139" gradientTransform="matrix(-0.9794 -0.202 -0.202 0.9794 5967.8452 -223.1201)"> <stop offset="0" style="stop-color:#C5CBFF"></stop> <stop offset="1" style="stop-color:#99C0FF;stop-opacity:0.5"></stop> </linearGradient> <path class="st7" d="M662.2,436.7c25.1-8.5,45.2-12.7,63.8-30.9c1.8-1.7,0.8,7.7-24.7-13.9c1.7-1.9,13.4-5,35.1,2.1 c21.7-28.6,31.8-48.6,35.3-67.2c3.5-18.6,5.8-34.8,6.8-39.3c-14.8-2-30.8-5.8-34.8-8.2c6.6-1.1,29.4,4.3,35.3,3.2 c2.3-6.3,4.1-17.6,12-30.2c7.8-12.6,21.9-29,28.7-34.2c-13.7-5.6-44-3.5-63.3,3.7c-19.3,7.3-36.4,17.7-38.6,20 c-1.4,4,2.3,17.9,4.5,21c-6.9-1.3-18.2-8.5-19.7-8.9c-11.3,12.3-61.9,63.5-64.5,107.4c4.8,4,11.4,15,13.3,19.2 c-3.7,2.2-8.8,1-17.5-3.6c2.9,16.5,5,23,11.1,36.6c4.8,10.8,8.9,17.6,11.6,20.5c1.2,1.2,2.3,2.5,4,3.1L662.2,436.7z"></path> <linearGradient id="SVGID_8_" gradientUnits="userSpaceOnUse" x1="-1898.653" y1="3556.5964" x2="-1823.8798" y2="3567.2185" gradientTransform="matrix(0.9045 1.0777 -0.9375 0.7868 5755.3032 -475.1911)"> <stop offset="0" style="stop-color:#CFDDFB"></stop> <stop offset="1" style="stop-color:#709BF5"></stop> </linearGradient> <path class="st8" d="M797.9,222.8c-9.5,7.5-50.6,38.5-69.7,59.7s-40.1,58.6-48.7,88.7c-8.6,30.1-11.2,49.1-11.2,49.1"></path> <linearGradient id="SVGID_9_" gradientUnits="userSpaceOnUse" x1="-361.1033" y1="1635.7805" x2="-213.7168" y2="1635.7805" gradientTransform="matrix(0.9486 0.3164 -0.3164 0.9486 1402.079 -1072.2115)"> <stop offset="0" style="stop-color:#C5CBFF"></stop> <stop offset="0.9597" style="stop-color:#9BC0FF"></stop> <stop offset="1" style="stop-color:#99C0FF;stop-opacity:0.5"></stop> </linearGradient> <path class="st9" d="M650,472.1c-16.5-8-29.9-12.7-41.1-26.8c-1.1-1.4-1.2,5.2,18.2-7.3c-1-1.4-8.8-4.6-24.3-1.7 c-12.4-21.6-17.6-36.1-18.4-49.2s-0.9-24.4-1.2-27.6c10.4,0,21.6-1.3,24.6-2.6c-4.4-1.3-20.6,0.3-24.5-0.9 c-1-4.5-1.3-12.4-5.6-21.8c-4.2-9.3-12.5-21.8-16.7-26c9.9-2.7,30.5,1.4,43.1,8.1c12.6,6.7,23.4,15.3,24.8,17.1 c0.6,2.9-3.1,12.1-5,14c4.8-0.3,13.2-4.2,14.3-4.4c6.7,9.4,36.9,49,34.8,79.3c-3.7,2.3-9.1,9.3-10.8,12c2.3,1.8,6,1.4,12.3-0.9 c-3.4,11.1-5.5,15.4-10.8,24.2c-4.2,7-7.6,11.3-9.8,13c-0.9,0.7-1.8,1.5-3,1.7L650,472.1z"></path> <linearGradient id="SVGID_10_" gradientUnits="userSpaceOnUse" x1="1212.5167" y1="494.2765" x2="1264.7654" y2="501.6989" gradientTransform="matrix(-1.0339 0.9543 0.8301 0.8994 1479.1543 -1242.9376)"> <stop offset="0" style="stop-color:#CFDDFB"></stop> <stop offset="1" style="stop-color:#709BF5"></stop> </linearGradient> <path class="st10" d="M575.7,313.4c5.9,6,31.4,30.8,42.6,47.1c11.3,16.2,22.4,43.8,25.6,65.2s3.4,34.7,3.4,34.7"></path> <linearGradient id="SVGID_11_" gradientUnits="userSpaceOnUse" x1="5060.6592" y1="840.3394" x2="5232.0225" y2="840.3394" gradientTransform="matrix(-0.9993 -3.730294e-02 -3.730294e-02 0.9993 5918.9946 -263.3085)"> <stop offset="0" style="stop-color:#B3CAFC"></stop> <stop offset="1" style="stop-color:#8BB0FB"></stop> </linearGradient> <path class="st11" d="M669.3,459.7c21.2-2,37.7-1.6,55.7-12.4c1.7-1-0.8,6.2-16.8-15.4c1.6-1.2,11.4-1.4,27.1,8.1 c22.3-18.4,33.9-32.1,40.1-46.1c6.2-13.9,11-26.2,12.6-29.5c-11.3-4.3-23-10.2-25.7-12.9c5.3,0.3,22.2,8.8,27.1,9 c3-4.5,6.5-13,15-21.5c8.4-8.4,22.5-18.7,28.8-21.5c-9.7-6.9-33.8-10.9-50.3-8.8c-16.4,2.1-31.8,7.1-33.9,8.5 c-1.9,2.9-1.5,14.4-0.3,17.3c-5.2-2.3-12.7-10-13.8-10.6c-11.1,7.5-60.2,38.3-70.4,72.1c3,4.1,6.1,13.9,6.9,17.5 c-3.3,1-7.1-0.9-13-6.1c-0.8,13.4-0.3,19,1.9,30.7c1.8,9.3,3.7,15.4,5.3,18.2c0.7,1.1,1.4,2.4,2.6,3.1L669.3,459.7z"></path> <linearGradient id="SVGID_12_" gradientUnits="userSpaceOnUse" x1="-1150.4607" y1="4068.4951" x2="-1089.9839" y2="4077.0864" gradientTransform="matrix(0.6324 1.2568 -1.0933 0.5502 5906.8521 -450.2325)"> <stop offset="0" style="stop-color:#CFDDFB"></stop> <stop offset="1" style="stop-color:#709BF5"></stop> </linearGradient> <path class="st12" d="M815.1,317.4c-8.8,4.1-46.7,20.8-65.6,33.8c-18.9,13.1-42.3,38.5-54.5,60.5S677.1,448,677.1,448"></path> </g> <g> <rect x="288.4" y="212" class="st13" width="387.6" height="257.3"></rect> <g> <path class="st14" d="M651.4,387.1H312.9c-4.6,0-8.3-3.7-8.3-8.3V369c0-4.6,3.7-8.3,8.3-8.3h338.5c4.6,0,8.3,3.7,8.3,8.3v9.8 C659.8,383.4,656,387.1,651.4,387.1z"></path> <path class="st14" d="M651.6,434.1H313.1c-4.6,0-8.3-3.7-8.3-8.3V416c0-4.6,3.7-8.3,8.3-8.3h338.5c4.6,0,8.3,3.7,8.3,8.3v9.8 C659.9,430.4,656.2,434.1,651.6,434.1z"></path> <path class="st14" d="M448.6,340.2H435c-6.4,0-11.6-5.2-11.6-11.6v-69.9c0-6.4,5.2-11.6,11.6-11.6h13.6c6.4,0,11.6,5.2,11.6,11.6 v69.9C460.1,335,455,340.2,448.6,340.2z"></path> <path class="st14" d="M376.3,340.2h-50.1c-11.9,0-21.5-9.6-21.5-21.5v-50.1c0-11.9,9.6-21.5,21.5-21.5h50.1 c11.9,0,21.5,9.6,21.5,21.5v50.1C397.8,330.6,388.2,340.2,376.3,340.2z"></path> <path class="st14" d="M572.8,258.7v13.6c0,6.4-5.2,11.6-11.6,11.6h-69.9c-6.4,0-11.6-5.2-11.6-11.6v-13.6 c0-6.4,5.2-11.6,11.6-11.6h69.9C567.7,247.1,572.8,252.3,572.8,258.7z"></path> <path class="st14" d="M656.5,268.6v50.1c0,11.9-9.6,21.5-21.5,21.5h-26.2c-11.9,0-21.5-9.6-21.5-21.5v-50.1 c0-11.9,9.6-21.5,21.5-21.5H635C646.9,247.1,656.5,256.7,656.5,268.6z"></path> <path class="st14" d="M572.8,315v13.6c0,6.4-5.2,11.6-11.6,11.6h-69.9c-6.4,0-11.6-5.2-11.6-11.6V315c0-6.4,5.2-11.6,11.6-11.6 h69.9C567.7,303.5,572.8,308.6,572.8,315z"></path> </g> <rect x="277.4" y="198.4" class="st15" width="409.8" height="13.5"></rect> </g> <g> <g> <g> <defs> <circle id="SVGID_13_" cx="639.4" cy="250.2" r="20"></circle> </defs> <clipPath id="SVGID_14_"> <use xlink:href="#SVGID_13_" style="overflow:visible;"></use> </clipPath> <polygon class="st16" points="631.1,230.2 619.4,241.9 619.4,230.2 "></polygon> <polygon class="st16" points="632.5,230.2 619.4,243.3 619.4,241.9 631.1,230.2 "></polygon> <polygon class="st17" points="633.9,230.2 619.4,244.7 619.4,243.3 632.5,230.2 "></polygon> <polygon class="st18" points="635.4,230.2 619.4,246.2 619.4,244.7 633.9,230.2 "></polygon> <polygon class="st19" points="636.8,230.2 619.4,247.6 619.4,246.2 635.4,230.2 "></polygon> <polygon class="st20" points="638.2,230.2 619.4,249 619.4,247.6 636.8,230.2 "></polygon> <polygon class="st21" points="639.6,230.2 619.4,250.4 619.4,249 638.2,230.2 "></polygon> <polygon class="st22" points="641,230.2 619.4,251.8 619.4,250.4 639.6,230.2 "></polygon> <polygon class="st23" points="642.4,230.2 619.4,253.2 619.4,251.8 641,230.2 "></polygon> <polygon class="st24" points="643.8,230.2 619.4,254.6 619.4,253.2 642.4,230.2 "></polygon> <polygon class="st25" points="645.3,230.2 619.4,256.1 619.4,254.6 643.8,230.2 "></polygon> <polygon class="st26" points="646.7,230.2 619.4,257.5 619.4,256.1 645.3,230.2 "></polygon> <polygon class="st27" points="648.1,230.2 619.4,258.9 619.4,257.5 646.7,230.2 "></polygon> <polygon class="st28" points="649.5,230.2 619.4,260.3 619.4,258.9 648.1,230.2 "></polygon> <polygon class="st29" points="650.9,230.2 619.4,261.7 619.4,260.3 649.5,230.2 "></polygon> <polygon class="st30" points="651.5,230.2 651.9,230.6 619.8,262.7 619.4,262.3 619.4,261.7 650.9,230.2 "></polygon> <rect x="613.5" y="246.5" transform="matrix(0.7071 -0.7071 0.7071 0.7071 11.6789 522.2239)" class="st31" width="45.5" height="1"></rect> <rect x="614.2" y="247.2" transform="matrix(0.7071 -0.7071 0.7071 0.7071 11.3858 522.9315)" class="st32" width="45.5" height="1"></rect> <rect x="614.9" y="247.9" transform="matrix(0.7071 -0.7071 0.7071 0.7071 11.0927 523.639)" class="st33" width="45.5" height="1"></rect> <rect x="615.6" y="248.6" transform="matrix(0.7071 -0.7071 0.7071 0.7071 10.7996 524.3466)" class="st34" width="45.5" height="1"></rect> <rect x="616.3" y="249.3" transform="matrix(0.7071 -0.7071 0.7071 0.7071 10.5066 525.0541)" class="st35" width="45.5" height="1"></rect> <rect x="617" y="250.1" transform="matrix(0.7071 -0.7071 0.7071 0.7071 10.2135 525.7617)" class="st36" width="45.5" height="1"></rect> <rect x="617.7" y="250.8" transform="matrix(0.7071 -0.7071 0.7071 0.7071 9.9204 526.4692)" class="st37" width="45.5" height="1"></rect> <rect x="618.4" y="251.5" transform="matrix(0.7071 -0.7071 0.7071 0.7071 9.6273 527.1768)" class="st38" width="45.5" height="1"></rect> <rect x="619.1" y="252.2" transform="matrix(0.7071 -0.7071 0.7071 0.7071 9.3343 527.8843)" class="st39" width="45.5" height="1"></rect> <rect x="619.9" y="252.9" transform="matrix(0.7071 -0.7071 0.7071 0.7071 9.0412 528.5919)" class="st40" width="45.5" height="1"></rect> <polygon class="st41" points="659,237.7 659.4,238.1 659.4,238.7 627.9,270.2 627.3,270.2 626.9,269.8 "></polygon> <polygon class="st42" points="659.4,240.1 629.3,270.2 627.9,270.2 659.4,238.7 "></polygon> <polygon class="st43" points="659.4,241.5 630.7,270.2 629.3,270.2 659.4,240.1 "></polygon> <polygon class="st44" points="659.4,242.9 632.1,270.2 630.7,270.2 659.4,241.5 "></polygon> <polygon class="st45" points="659.4,244.3 633.5,270.2 632.1,270.2 659.4,242.9 "></polygon> <polygon class="st46" points="659.4,245.8 635,270.2 633.5,270.2 659.4,244.3 "></polygon> <polygon class="st47" points="659.4,247.2 636.4,270.2 635,270.2 659.4,245.8 "></polygon> <polygon class="st48" points="659.4,248.6 637.8,270.2 636.4,270.2 659.4,247.2 "></polygon> <polygon class="st49" points="659.4,250 639.2,270.2 637.8,270.2 659.4,248.6 "></polygon> <polygon class="st50" points="659.4,251.4 640.6,270.2 639.2,270.2 659.4,250 "></polygon> <polygon class="st51" points="659.4,252.8 642,270.2 640.6,270.2 659.4,251.4 "></polygon> <polygon class="st52" points="659.4,254.2 643.4,270.2 642,270.2 659.4,252.8 "></polygon> <polygon class="st53" points="659.4,255.7 644.9,270.2 643.4,270.2 659.4,254.2 "></polygon> <polygon class="st54" points="659.4,257.1 646.3,270.2 644.9,270.2 659.4,255.7 "></polygon> <polygon class="st55" points="659.4,258.5 647.7,270.2 646.3,270.2 659.4,257.1 "></polygon> <polygon class="st55" points="647.7,270.2 659.4,258.5 659.4,270.2 "></polygon> </g> </g> <g> <path class="st56" d="M638.4,258.9C638.4,258.9,638.4,258.9,638.4,258.9c-0.5,0-1-0.2-1.4-0.6l-9.8-10.2c-0.7-0.8-0.7-2,0-2.7 c0.8-0.7,2-0.7,2.7,0l8.5,8.8l12.3-12.3c0.7-0.7,2-0.8,2.7,0c0.7,0.7,0.7,2,0,2.7l-13.6,13.7C639.4,258.7,638.9,258.9,638.4,258.9 z"></path> </g> </g> <polygon class="st57" points="479.8,149.2 436.5,207.2 523.1,207.2 "></polygon> <g> <linearGradient id="SVGID_15_" gradientUnits="userSpaceOnUse" x1="168.2784" y1="352.5014" x2="167.3979" y2="309.3642" gradientTransform="matrix(1 0 0 -1 0 778)"> <stop offset="0" style="stop-color:#709BF5"></stop> <stop offset="1" style="stop-color:#3C5CFA"></stop> </linearGradient> <path class="st58" d="M159.1,478.3c2.8-6.5-5.6-7.1-3.5-14.5c2.1-7.4,5.9-4.1,6.8-15.2c0.9-10.5-8.1-10.8-1.4-22.1 c4.8-7.9,9-4.1,11.4-13.6c1-4.3,11.1-0.9,7.5,4.8s-9.6,10.1-6.1,17.4c3.5,7.4,3.9,16.1-1.2,20.7s4.1,9.6-2.1,18.9 c-3.7,5.6-5.6,5.8-7.9,5.8S159.1,478.3,159.1,478.3z"></path> <g> <linearGradient id="SVGID_16_" gradientUnits="userSpaceOnUse" x1="121.0001" y1="358.0107" x2="129.0827" y2="313.2053" gradientTransform="matrix(1 0 0 -1 0 778)"> <stop offset="0" style="stop-color:#709BF5"></stop> <stop offset="1" style="stop-color:#3C5CFA"></stop> </linearGradient> <path class="st59" d="M126.3,478.3c0.9-7.5-7.2-6.2-7.7-14.5c-0.4-8.3,6.3-7,0.8-17c-5.6-10.1-11.5-12.3-9.4-22 c1.9-9.7-3.1-17.8,1.7-19.8c4.8-1.8,18.6,7.5,16.8,14.5c-1.9,7-3.7,11.8,2.8,18.2c6.6,6.5,11.1,12.4,7.2,18.6 c-3.9,6.2,5,9.7-0.9,14.5c-5.9,4.8-4,7.7-6.6,8.5C128.5,480.3,126.3,478.3,126.3,478.3z"></path> <linearGradient id="SVGID_17_" gradientUnits="userSpaceOnUse" x1="142.5349" y1="370.7502" x2="144.9667" y2="312.117" gradientTransform="matrix(1 0 0 -1 0 778)"> <stop offset="0" style="stop-color:#B3CAFC"></stop> <stop offset="1" style="stop-color:#8BB0FB"></stop> </linearGradient> <path class="st60" d="M148.6,483.9c-4,0.5-9.2-1.9-8.1-5c2.6-7.1-10.5-10.7-11.4-19c-1.2-10.3,3-7.1,4.8-17.7 c2.5-13.8-11.1-9.8-1.4-24.5c7.1-11-4.8-25.3,2.6-26.7c7.2-1.4,21.2,12.1,16.9,20.5c-4.3,8.3,12.8,12.8,4,22.9 c-7.6,8.7,8.8,14.7,1.9,21.8c-6.8,7.1,9.4,14.9-0.1,19.8c-9.6,4.9-1.7,8.1-8.9,8C148.8,483.8,148.6,483.9,148.6,483.9z"></path> <linearGradient id="SVGID_18_" gradientUnits="userSpaceOnUse" x1="118.6754" y1="367.9111" x2="130.8201" y2="300.5884" gradientTransform="matrix(1 0 0 -1 0 778)"> <stop offset="0" style="stop-color:#CFDDFB"></stop> <stop offset="1" style="stop-color:#709BF5"></stop> </linearGradient> <path class="st61" d="M115.2,411.4c2.8,5.3,3.9,11.4,3.9,15.2c0,3.9,1.7,12,5.6,14.5c3.9,2.3,6.1,8.4,4.4,13 c-1.7,4.6-0.5,11,0.6,15.2c1.2,4.3,0,7.5,0,7.5"></path> <linearGradient id="SVGID_19_" gradientUnits="userSpaceOnUse" x1="163.8931" y1="312.1167" x2="177.964" y2="234.1162" gradientTransform="matrix(0.9857 0.1685 0.1685 -0.9857 -68.6332 679.0919)"> <stop offset="0.1022" style="stop-color:#709BF5"></stop> <stop offset="1" style="stop-color:#CFDDFB"></stop> </linearGradient> <path class="st62" d="M140.8,399.8c1.9,5.7,6,21.3,3.5,26.5c-1.7,3.5-0.4,12.1,3,15.2c3.4,2.9,4.6,9.3,2.1,13.6 c-2.4,4.3-2.4,10.7-1.9,15.1c0.4,4.4-1.3,7.4-1.3,7.4"></path> <linearGradient id="SVGID_20_" gradientUnits="userSpaceOnUse" x1="1008.5543" y1="358.4716" x2="1020.9858" y2="289.5587" gradientTransform="matrix(-0.8849 1.294282e-02 -1.318657e-02 -0.9016 1070.5277 725.4003)"> <stop offset="0" style="stop-color:#CFDDFB"></stop> <stop offset="1" style="stop-color:#709BF5"></stop> </linearGradient> <path class="st63" d="M175.5,416.3c-2.4,4.8-6.9,10.3-6.9,13.8c0.1,3.5,4,11.8,0.6,14.1c-3.4,2.1-4.3,9.6-2.7,13.7 c1.5,4.2-0.2,8.3-1.1,12.1s-2.9,6.8-2.9,6.8"></path> </g> </g> <circle class="st15" cx="479.8" cy="164.9" r="5.1"></circle> <linearGradient id="SVGID_21_" gradientUnits="userSpaceOnUse" x1="114.8262" y1="494.8855" x2="178.135" y2="494.8855"> <stop offset="0" style="stop-color:#B3CAFC"></stop> <stop offset="1" style="stop-color:#8BB0FB"></stop> </linearGradient> <path class="st64" d="M167.1,513.1h-41.2c-2.2,0-4.1-1.5-4.6-3.6l-6.4-27.1c-0.7-3,1.5-5.8,4.6-5.8h53.9c3,0,5.3,2.8,4.6,5.8 l-6.4,27.1C171.1,511.6,169.2,513.1,167.1,513.1z"></path> <g> <g> <polygon class="st65" points="224.6,555.6 195.4,661.9 199.9,662.7 232.2,564.9 "></polygon> <polygon class="st65" points="292.2,555.6 321.3,661.9 316.8,662.7 284.5,564.9 "></polygon> <path class="st65" d="M204.6,517.3c0,0-3.6,40.5,16.4,51.9s81.9,10.5,87.3,3.7c5.4-6.9,29.5-37.5-3.7-51.9s-36.5-14.3-36.5-14.3 s14.9-55-5-70.5C243.3,420.8,204.6,414.7,204.6,517.3z"></path> </g> <linearGradient id="SVGID_22_" gradientUnits="userSpaceOnUse" x1="276.033" y1="486.8506" x2="410.234" y2="621.0517"> <stop offset="0.2043" style="stop-color:#3C5CFA"></stop> <stop offset="0.7106" style="stop-color:#273ECC"></stop> </linearGradient> <path class="st66" d="M309.2,510.7c0,0,66.9-1.2,75,17.3c8.1,18.5,0,119,0,119h-16.2c0,0-16.2-76.3-11.5-99.4 c0,0-91.2-2.3-101.6-30C244.6,490,309.2,510.7,309.2,510.7z"></path> <path class="st67" d="M251.5,413.8c0,0-1.2-1.2,2.3-13.8c3.4-12.3,20.8,0,20.8,0l-2.3,10.4c0,0,5.8,8.1,0,12.7 C266.5,427.6,251.5,413.8,251.5,413.8z"></path> <linearGradient id="SVGID_23_" gradientUnits="userSpaceOnUse" x1="227.3067" y1="583.8021" x2="366.1481" y2="583.8021"> <stop offset="0.2043" style="stop-color:#3C5CFA"></stop> <stop offset="0.7106" style="stop-color:#273ECC"></stop> </linearGradient> <path class="st68" d="M227.3,517.7l1,17.9c0.8,14,12,25.1,26,25.6c26.4,1,66.1,2.7,78,5c0,0-8.1,62.4-3.5,91.3h17.3 c0,0,23.1-100.5,19.6-115.5s-41.5-18.5-86.6-28.9C242.5,504.6,227.3,517.7,227.3,517.7z"></path> <linearGradient id="SVGID_24_" gradientUnits="userSpaceOnUse" x1="226.1395" y1="463.9423" x2="349.6373" y2="463.9423"> <stop offset="9.677419e-02" style="stop-color:#F2CF54"></stop> <stop offset="0.8173" style="stop-color:#E79C25"></stop> </linearGradient> <path class="st69" d="M272.3,410.3c0.5-1,31.2,4.6,47.3,39.2c16.2,34.6,30,54.2,30,54.2l-12.7,6.9c0,0-25.4-28.9-36.9-43.9 c0,0,9.2,33.5,9.2,41.5c0,8.1-81.9,9.2-81.9,9.2s-9.2-54.2,24.2-103.9C251.5,413.8,264.2,426.5,272.3,410.3z"></path> <polygon class="st70" points="382.7,510.7 298.9,510.7 320.6,463.9 404.5,463.9 "></polygon> <path class="st67" d="M253.9,399.9c0,0,19.6,10.4,23.1,9.2c3.5-1.2,10.4-25.4,6.9-41.5c0,0-23.1-4.6-26.5-3.5s-9.2,18.5-6.9,24.2 C252.7,394.2,253.9,399.9,253.9,399.9z"></path> <linearGradient id="SVGID_25_" gradientUnits="userSpaceOnUse" x1="238.7934" y1="367.915" x2="297.3317" y2="367.915"> <stop offset="0.2043" style="stop-color:#3C5CFA"></stop> <stop offset="0.7106" style="stop-color:#273ECC"></stop> </linearGradient> <path class="st71" d="M257.3,365.3c0,0,21.9,8.1,30,2.3c8.1-5.8,13.8-17.3,6.9-23.1c-6.9-5.8-10.4,4.6-12.7,4.6s-3.5-3.5-9.2-1.2 c-5.8,2.3-17.3-5.8-24.2-2.3s-12.7,23.1-6.9,33.5c5.8,10.4,12.7,13.8,12.7,13.8s-3.5-17.3,0-17.3S258.5,375.7,257.3,365.3z"></path> <ellipse transform="matrix(0.7554 -0.6553 0.6553 0.7554 -193.3134 257.813)" class="st67" cx="248.7" cy="387.8" rx="4" ry="7.5"></ellipse> <path class="st67" d="M263.7,497.9c0.9-1.1,2.2-1.7,3.6-1.6c4.9,0.4,16.5,2.1,20.6,7.5c0.1,0.1,0.1,0.1,0.2,0.2 c2.1,2.7,0.1,6.6-3.3,6.6l-22.3-0.3c-3.4,0-5.3-4-3.2-6.6L263.7,497.9z"></path> <linearGradient id="SVGID_26_" gradientUnits="userSpaceOnUse" x1="205.1846" y1="439.7319" x2="269.6363" y2="504.1836"> <stop offset="0" style="stop-color:#FFFFFF"></stop> <stop offset="0" style="stop-color:#F2CF54"></stop> <stop offset="1" style="stop-color:#E79C25"></stop> </linearGradient> <path class="st72" d="M251.5,413.8c0,0-15.7,1.6-30,10.4c-20.8,12.7-26.5,73.9-24.2,79.6c2.3,5.8,32.3,11.5,64.6,8.1 c0,0-2.3-12.7,5.8-15c0,0,0-6.9-28.9-9.2C209.7,485.3,251.5,481.9,251.5,413.8z"></path> <linearGradient id="SVGID_27_" gradientUnits="userSpaceOnUse" x1="337.9654" y1="674.6053" x2="359.5171" y2="653.0535"> <stop offset="0.2043" style="stop-color:#3C5CFA"></stop> <stop offset="0.7106" style="stop-color:#273ECC"></stop> </linearGradient> <path class="st73" d="M328.9,657.4c0,0-1.7,3.7-0.6,7.4s38.1,4.6,42.7,2.8c4.6-1.8-5.2-8.3-24.8-10.2H328.9z"></path> <linearGradient id="SVGID_28_" gradientUnits="userSpaceOnUse" x1="376.7465" y1="663.768" x2="395.649" y2="644.8655"> <stop offset="0.2043" style="stop-color:#3C5CFA"></stop> <stop offset="0.7106" style="stop-color:#273ECC"></stop> </linearGradient> <path class="st74" d="M368.1,647c0,0-1.5,4.8,0.9,8.9c2.4,4.1,36.5,2.9,38.9,2c2.4-1-9.5-5.3-23.6-10.9H368.1z"></path> <rect x="267.7" y="503.3" class="st70" width="69.2" height="7.5"></rect> <linearGradient id="SVGID_29_" gradientUnits="userSpaceOnUse" x1="318.6232" y1="412.7039" x2="386.1517" y2="412.7039"> <stop offset="0" style="stop-color:#B3CAFC"></stop> <stop offset="1" style="stop-color:#8BB0FB"></stop> </linearGradient> <path class="st75" d="M374.8,382.5h-44.9c-6.2,0-11.3,5.1-11.3,11.3v22.6c0,6.2,5.1,11.3,11.3,11.3h0c0.9,0,1.6,0.7,1.6,1.6v11.9 c0,1.5,1.9,2.2,2.9,1l10.9-13.9c0.3-0.4,0.8-0.6,1.3-0.6h28.2c6.2,0,11.3-5.1,11.3-11.3v-22.6C386.2,387.6,381.1,382.5,374.8,382.5 z"></path> <circle class="st2" cx="351.7" cy="490.1" r="6.3"></circle> </g> <rect x="331.2" y="393.1" class="st2" width="42.6" height="7.3"></rect> <rect x="331.2" y="408.8" class="st2" width="42.6" height="7.3"></rect> <rect x="80.1" y="510.4" class="st76" width="784.1" height="15.2"></rect> <g> <polygon class="st77" points="524.9,316.3 527.5,274.9 552.3,292.2 555.7,318.3 "></polygon> <path class="st77" d="M562.3,273.9c0.9,15.6-1.4,27.5-18.2,23.1c-9.3-2.4-17-11.3-16.4-24.4c0.5-13.1,8.8-23.3,18.4-22.9 C555.7,250.2,561.5,260.9,562.3,273.9z"></path> <path class="st78" d="M543.3,260.6"></path> <path class="st79" d="M543.3,261.6c0,0,15.9-5,16.5-9.9c1.4-10.9-10-16-19.3-12.9c-9.3,3.1-9.3,8.8-9.3,8.8s-11.9-3.2-13.2,2.3 c-1.3,5.5-1.7,8.8,1.4,13.8c0,0-12.1,11.9,10.7,17.7C530.2,281.5,532.9,262.8,543.3,261.6z"></path> <ellipse transform="matrix(0.9562 -0.2926 0.2926 0.9562 -58.0906 167.082)" class="st77" cx="529.5" cy="277.7" rx="4.3" ry="7.4"></ellipse> <path class="st77" d="M492,470.5c-2.7,0.1-1.6,22.9,1.1,22.8c5.7-0.3,10.6-22.8,10.6-22.8H492z"></path> <linearGradient id="SVGID_30_" gradientUnits="userSpaceOnUse" x1="5113.6738" y1="550.165" x2="5169.5752" y2="550.165" gradientTransform="matrix(-1 0 0 1 5703.4434 0)"> <stop offset="0.2043" style="stop-color:#3C5CFA"></stop> <stop offset="0.7106" style="stop-color:#273ECC"></stop> </linearGradient> <path class="st80" d="M581.3,448.6l8.3,99.2c0.1,1.5,0.2,3.1,0.2,4.6v99.2h-19l-17.6-94l-19.3-105L581.3,448.6z"></path> <linearGradient id="SVGID_31_" gradientUnits="userSpaceOnUse" x1="5141.3325" y1="547.9713" x2="5190.3682" y2="547.9713" gradientTransform="matrix(-1 0 0 1 5703.4434 0)"> <stop offset="0.2043" style="stop-color:#3C5CFA"></stop> <stop offset="0.7106" style="stop-color:#273ECC"></stop> </linearGradient> <path class="st81" d="M513.1,444.3c0,0,8.1,82.9,9,117l-3.2,90.4h17.8l20.3-92.3l5.2-109L513.1,444.3z"></path> <linearGradient id="SVGID_32_" gradientUnits="userSpaceOnUse" x1="5089.9346" y1="657.7917" x2="5130.8262" y2="657.7917" gradientTransform="matrix(-1 0 0 1 5703.4434 0)"> <stop offset="0.2043" style="stop-color:#3C5CFA"></stop> <stop offset="0.7106" style="stop-color:#273ECC"></stop> </linearGradient> <path class="st82" d="M572.6,650.8l0.3,13.4l38.9,0.6c2,0,2.4-2.9,0.4-3.4l-21.9-5.5l-1-4.1L572.6,650.8z"></path> <linearGradient id="SVGID_33_" gradientUnits="userSpaceOnUse" x1="5145.4634" y1="658.341" x2="5185.2334" y2="658.341" gradientTransform="matrix(-1 0 0 1 5703.4434 0)"> <stop offset="0.2043" style="stop-color:#3C5CFA"></stop> <stop offset="0.7106" style="stop-color:#273ECC"></stop> </linearGradient> <path class="st83" d="M518.2,651.7V665h37.3c2.8,0,3.4-3.3,0.7-4l-16.8-4.3l-2.4-5H518.2z"></path> <linearGradient id="SVGID_34_" gradientUnits="userSpaceOnUse" x1="4930.2466" y1="541.0084" x2="4971.7471" y2="541.0084" gradientTransform="matrix(-1 0 0 1 5703.4434 0)"> <stop offset="0.2043" style="stop-color:#3C5CFA"></stop> <stop offset="0.7106" style="stop-color:#273ECC"></stop> </linearGradient> <path class="st84" d="M735.6,438.8L731.7,541l16.2,102.2h8.5c0,0,4.8-50.1-1.4-85.2c-1.4-7.8,0.3-21.5,3.2-28.8 c6.5-16.5,20.5-45.8,12.5-90.4H735.6z"></path> <linearGradient id="SVGID_35_" gradientUnits="userSpaceOnUse" x1="4894.5308" y1="407.6722" x2="4932.2007" y2="407.6722" gradientTransform="matrix(-1 0 0 1 5703.4434 0)"> <stop offset="9.677419e-02" style="stop-color:#F2CF54"></stop> <stop offset="0.8173" style="stop-color:#E79C25"></stop> </linearGradient> <path class="st85" d="M787.1,340.9l19.4,79.9l2.4,57.9h-6l-8.3-59.5l-23.2-60.7c0,0-2.2-21.9,9.9-21.9L787.1,340.9z"></path> <polygon class="st86" points="759.7,335.4 759.7,318.3 775.4,299.1 775.4,327.8 "></polygon> <ellipse class="st86" cx="762" cy="301.3" rx="13.3" ry="22.7"></ellipse> <linearGradient id="SVGID_36_" gradientUnits="userSpaceOnUse" x1="4947.0693" y1="651.3631" x2="4979.7012" y2="651.3631" gradientTransform="matrix(-1 0 0 1 5703.4434 0)"> <stop offset="0.2043" style="stop-color:#3C5CFA"></stop> <stop offset="0.7106" style="stop-color:#273ECC"></stop> </linearGradient> <path class="st87" d="M756.4,643.2v15.5h-5.5V651l-13.1,8.5h-10.3c-2.1,0-3.8-1.7-3.8-3.7l0,0c0-2,1.5-3.6,3.5-3.7l8.4-0.6 l12.2-8.1H756.4z"></path> <linearGradient id="SVGID_37_" gradientUnits="userSpaceOnUse" x1="4871.2056" y1="641.8588" x2="4903.8828" y2="641.8588" gradientTransform="matrix(-1 0 0 1 5703.4434 0)"> <stop offset="0.2043" style="stop-color:#3C5CFA"></stop> <stop offset="0.7106" style="stop-color:#273ECC"></stop> </linearGradient> <path class="st88" d="M829.3,631.1l2.9,15.2l-5.4,1l-1.4-7.6l-11.3,10.8l-10.1,1.9c-2,0.4-4-0.9-4.4-3l0,0 c-0.4-1.9,0.8-3.8,2.7-4.3l8.2-2.2l10.8-10.7L829.3,631.1z"></path> <linearGradient id="SVGID_38_" gradientUnits="userSpaceOnUse" x1="4905.3062" y1="311.7292" x2="4958.9326" y2="311.7292" gradientTransform="matrix(-1 0 0 1 5703.4434 0)"> <stop offset="0.2043" style="stop-color:#3C5CFA"></stop> <stop offset="0.7106" style="stop-color:#273ECC"></stop> </linearGradient> <path class="st89" d="M744.6,282.3c0,0,2,7.6,20.5,10.6c0,0,7.2-0.2,8.7,9.9c1.5,10.1-2.6,39.9,1.5,42c4.1,2.2,16.9,25.3,13.9,5.3 c-2.9-20,22.3-74-1.4-81.6S742.8,267.4,744.6,282.3z"></path> <linearGradient id="SVGID_39_" gradientUnits="userSpaceOnUse" x1="4912.5791" y1="384.0618" x2="4967.8408" y2="384.0618" gradientTransform="matrix(-1 0 0 1 5703.4434 0)"> <stop offset="9.677419e-02" style="stop-color:#F2CF54"></stop> <stop offset="0.8173" style="stop-color:#E79C25"></stop> </linearGradient> <path class="st90" d="M735.6,438.8c0,0,4.5-23.6,8.9-52.5c1.4-9.1-9.3-10.3-3.9-27.2c3.4-10.5,13.1-15.9,16.7-21 c15.2-20.7,31.1-0.8,33.3,16.4s-12.1,43.1-9.4,57.6c2.7,14.5,5.2,26.5,5.2,26.5H735.6z"></path> <linearGradient id="SVGID_40_" gradientUnits="userSpaceOnUse" x1="4922.1782" y1="378.9785" x2="5033.1606" y2="378.9785" gradientTransform="matrix(-1 0 0 1 5703.4434 0)"> <stop offset="9.677419e-02" style="stop-color:#F2CF54"></stop> <stop offset="0.8173" style="stop-color:#E79C25"></stop> </linearGradient> <path class="st91" d="M769.5,336.8c0,0,13.4-9.9,11.6,12.7c-1.8,22.6-43.9,49.2-43.9,49.2l-66.9,24.6v-7l64-32.6 C734.3,383.7,760.8,339.6,769.5,336.8z"></path> <circle class="st86" cx="774.4" cy="304.7" r="5.6"></circle> <path class="st86" d="M670.3,416.3c0,0-13.3,4.4-12.4,8s12.4-0.9,12.4-0.9V416.3z"></path> <path class="st77" d="M645,414.8c0,0,16.9,1.4,18.3,3.9c1.3,2.5,2.1,4.6,0,6.8c-2.1,2.2-18.9-1.3-18.9-1.3L645,414.8z"></path> <path class="st86" d="M802.9,478.7c0,0,1.6,13.3,6,14.8c4.4,1.5,7.9-2,4.4-4.7c-3.4-2.7-4.4-10.1-4.4-10.1H802.9z"></path> <linearGradient id="SVGID_41_" gradientUnits="userSpaceOnUse" x1="4874.4233" y1="535.5506" x2="4956.7217" y2="535.5506" gradientTransform="matrix(-1 0 0 1 5703.4434 0)"> <stop offset="0.2043" style="stop-color:#3C5CFA"></stop> <stop offset="0.7106" style="stop-color:#273ECC"></stop> </linearGradient> <path class="st92" d="M784.9,438.8c0,0,9.4,32.7,6.6,90c-0.4,7.5-0.7,14.8,4.2,20.4c11.6,13.4,28.1,46.2,33.3,83.1h-7.7 c0,0-47.5-85.1-47.5-83.7s-35.1-73.9-25.5-108.1l9.7-1.8H784.9z"></path> <linearGradient id="SVGID_42_" gradientUnits="userSpaceOnUse" x1="5057.2104" y1="372.7877" x2="5157.3379" y2="372.7877" gradientTransform="matrix(-1 0 0 1 5703.4434 0)"> <stop offset="0.2043" style="stop-color:#D35D16"></stop> <stop offset="0.5942" style="stop-color:#B94811"></stop> </linearGradient> <path class="st93" d="M558.3,317.6c0,0,38.6,54.5,44.1,81.1l43.8,14.4v14.7c0,0-59.1,2-68-5.5c-8.9-7.5-35.5-84.8-31.7-94.3 C550.2,318.5,558.3,317.6,558.3,317.6z"></path> <linearGradient id="SVGID_43_" gradientUnits="userSpaceOnUse" x1="5120.5923" y1="381.0281" x2="5199.8828" y2="381.0281" gradientTransform="matrix(-1 0 0 1 5703.4434 0)"> <stop offset="0.2043" style="stop-color:#D35D16"></stop> <stop offset="0.5942" style="stop-color:#B94811"></stop> </linearGradient> <path class="st94" d="M534.6,307.7c-3.5-0.7-6.2,1.6-9.1,3.6c-9.1,6.2-22.2,33.7-22,53.8c0.2,18,5.5,32.7,10,44 c3.7,9.3,3.7,19.7-0.1,29l-0.1,0.2c-2.1,5.3,1.2,11.2,6.8,12.2c18.5,3.1,54.5,7.7,61.1-2c7.9-11.4-16.7-107.1-23-131.1 c-0.9-3.3-3.6-5.8-6.9-6.5L534.6,307.7z"></path> <linearGradient id="SVGID_44_" gradientUnits="userSpaceOnUse" x1="5166.1074" y1="394.7487" x2="5215.8135" y2="394.7487" gradientTransform="matrix(-1 0 0 1 5703.4434 0)"> <stop offset="0.2043" style="stop-color:#D35D16"></stop> <stop offset="0.5942" style="stop-color:#B94811"></stop> </linearGradient> <path class="st95" d="M520.3,320.7c0,0,14-7.7,16.9,9.9s-25.9,62-25.9,62l-7.5,78h-13.3c0,0-6.1-72-0.4-92.2 C496,357.4,501.7,332.4,520.3,320.7z"></path> </g> </svg> 