<svg width="245" height="47" viewBox="0 0 245 47" fill="none" xmlns="http://www.w3.org/2000/svg">
<path d="M64.9179 35.0866C63.3312 35.0866 61.9372 34.6786 60.7359 33.8626C59.5346 33.0466 58.5939 31.9586 57.9139 30.5986C57.2339 29.2159 56.8939 27.7086 56.8939 26.0766C56.8939 24.3539 57.2452 22.8012 57.9479 21.4186C58.6506 20.0132 59.6252 18.9026 60.8719 18.0866C62.1186 17.2706 63.5579 16.8626 65.1899 16.8626C66.5726 16.8626 67.7852 17.1799 68.8279 17.8146C69.8706 18.4266 70.7319 19.2539 71.4119 20.2966V17.1686H75.3899V34.1346C75.3899 35.9026 74.9592 37.4099 74.0979 38.6566C73.2592 39.9259 72.0919 40.8892 70.5959 41.5466C69.0999 42.2266 67.3999 42.5666 65.4959 42.5666C63.5466 42.5666 61.9032 42.2379 60.5659 41.5806C59.2512 40.9459 58.1179 40.0392 57.1659 38.8606L59.6479 36.4466C60.3279 37.2852 61.1779 37.9426 62.1979 38.4186C63.2406 38.8946 64.3399 39.1326 65.4959 39.1326C66.4479 39.1326 67.3206 38.9512 68.1139 38.5886C68.9299 38.2486 69.5872 37.7046 70.0859 36.9566C70.5846 36.2312 70.8339 35.2906 70.8339 34.1346V31.8906C70.2446 32.9106 69.4059 33.7039 68.3179 34.2706C67.2526 34.8146 66.1192 35.0866 64.9179 35.0866ZM66.4479 31.4486C67.4452 31.4486 68.3406 31.1539 69.1339 30.5646C69.9499 29.9752 70.5166 29.2726 70.8339 28.4566V24.2066C70.4259 23.1639 69.7799 22.3252 68.8959 21.6906C68.0346 21.0559 67.1279 20.7386 66.1759 20.7386C65.2466 20.7386 64.4306 20.9992 63.7279 21.5206C63.0479 22.0419 62.5152 22.7219 62.1299 23.5606C61.7446 24.3766 61.5519 25.2606 61.5519 26.2126C61.5519 27.1872 61.7672 28.0712 62.1979 28.8646C62.6286 29.6579 63.2066 30.2926 63.9319 30.7686C64.6799 31.2219 65.5186 31.4486 66.4479 31.4486ZM87.7587 35.3246C85.8321 35.3246 84.1661 34.9052 82.7607 34.0666C81.3781 33.2279 80.3014 32.1172 79.5307 30.7346C78.7601 29.3292 78.3747 27.8106 78.3747 26.1786C78.3747 24.5012 78.7487 22.9599 79.4967 21.5546C80.2674 20.1266 81.3554 18.9932 82.7607 18.1546C84.1661 17.2932 85.8434 16.8626 87.7927 16.8626C89.7421 16.8626 91.4081 17.2932 92.7907 18.1546C94.1734 18.9932 95.2274 20.1152 95.9527 21.5206C96.7007 22.9032 97.0747 24.3992 97.0747 26.0086C97.0747 26.5979 97.0407 27.1079 96.9727 27.5386H83.2027C83.3161 28.9212 83.8261 30.0092 84.7327 30.8026C85.6621 31.5959 86.7274 31.9926 87.9287 31.9926C88.8354 31.9926 89.6854 31.7772 90.4787 31.3466C91.2947 30.8932 91.8501 30.3039 92.1447 29.5786L96.0547 30.6666C95.3974 32.0266 94.3434 33.1486 92.8927 34.0326C91.4421 34.8939 89.7307 35.3246 87.7587 35.3246ZM83.1007 24.6486H92.4167C92.2807 23.3112 91.7707 22.2346 90.8867 21.4186C90.0254 20.5799 88.9714 20.1606 87.7247 20.1606C86.5007 20.1606 85.4467 20.5799 84.5627 21.4186C83.7014 22.2346 83.2141 23.3112 83.1007 24.6486ZM108.078 35.3246C106.129 35.3246 104.452 34.9052 103.046 34.0666C101.664 33.2052 100.598 32.0719 99.8502 30.6666C99.1022 29.2612 98.7282 27.7426 98.7282 26.1106C98.7282 24.4559 99.1022 22.9259 99.8502 21.5206C100.621 20.1152 101.698 18.9932 103.08 18.1546C104.486 17.2932 106.152 16.8626 108.078 16.8626C110.005 16.8626 111.66 17.2932 113.042 18.1546C114.448 18.9932 115.524 20.1152 116.272 21.5206C117.02 22.9259 117.394 24.4559 117.394 26.1106C117.394 27.7426 117.02 29.2612 116.272 30.6666C115.524 32.0719 114.448 33.2052 113.042 34.0666C111.66 34.9052 110.005 35.3246 108.078 35.3246ZM103.42 26.1106C103.42 27.1532 103.624 28.0826 104.032 28.8986C104.44 29.6919 104.996 30.3152 105.698 30.7686C106.401 31.2219 107.194 31.4486 108.078 31.4486C108.94 31.4486 109.722 31.2219 110.424 30.7686C111.127 30.2926 111.682 29.6579 112.09 28.8646C112.521 28.0486 112.736 27.1192 112.736 26.0766C112.736 25.0566 112.521 24.1499 112.09 23.3566C111.682 22.5406 111.127 21.9059 110.424 21.4526C109.722 20.9766 108.94 20.7386 108.078 20.7386C107.194 20.7386 106.401 20.9766 105.698 21.4526C104.996 21.9059 104.44 22.5406 104.032 23.3566C103.624 24.1499 103.42 25.0679 103.42 26.1106ZM132.573 33.9986C131.667 34.3839 130.692 34.7126 129.649 34.9846C128.629 35.2339 127.621 35.3586 126.623 35.3586C125.649 35.3586 124.753 35.1999 123.937 34.8826C123.121 34.5426 122.464 33.9986 121.965 33.2506C121.489 32.4799 121.251 31.4486 121.251 30.1566V21.9626H119.041V17.1006H121.251V11.4906H127.711V17.1006H131.213V21.9626H127.711V27.8786C127.711 28.4679 127.836 28.8872 128.085 29.1366C128.335 29.3632 128.675 29.4766 129.105 29.4766C129.423 29.4766 129.785 29.4199 130.193 29.3066C130.601 29.1932 131.009 29.0572 131.417 28.8986L132.573 33.9986ZM134.404 15.6046V10.1646H140.864V15.6046H134.404ZM134.404 34.9846V17.1006H140.864V34.9846H134.404ZM152.939 35.3246C150.854 35.3246 149.074 34.9052 147.601 34.0666C146.15 33.2279 145.04 32.1172 144.269 30.7346C143.521 29.3519 143.147 27.8672 143.147 26.2806C143.147 24.5579 143.521 22.9826 144.269 21.5546C145.017 20.1039 146.116 18.9479 147.567 18.0866C149.018 17.2026 150.808 16.7606 152.939 16.7606C155.07 16.7606 156.86 17.1912 158.311 18.0526C159.762 18.9139 160.861 20.0472 161.609 21.4526C162.357 22.8579 162.731 24.3879 162.731 26.0426C162.731 26.7452 162.674 27.4026 162.561 28.0146H150.015C150.083 28.9666 150.434 29.6579 151.069 30.0886C151.704 30.4966 152.395 30.7006 153.143 30.7006C153.846 30.7006 154.503 30.5419 155.115 30.2246C155.75 29.9072 156.169 29.4652 156.373 28.8986L161.847 30.4626C161.122 31.8906 160 33.0579 158.481 33.9646C156.962 34.8712 155.115 35.3246 152.939 35.3246ZM149.879 24.1386H155.795C155.704 23.2772 155.387 22.5972 154.843 22.0986C154.322 21.5999 153.653 21.3506 152.837 21.3506C152.021 21.3506 151.352 21.5999 150.831 22.0986C150.31 22.5972 149.992 23.2772 149.879 24.1386ZM182.838 34.9846H176.378V24.9206C176.378 24.0366 176.174 23.4019 175.766 23.0166C175.38 22.6086 174.927 22.4046 174.406 22.4046C173.862 22.4046 173.284 22.6426 172.672 23.1186C172.06 23.5946 171.606 24.2066 171.312 24.9546V34.9846H164.852V17.1006H170.666V19.7526C171.3 18.7779 172.196 18.0412 173.352 17.5426C174.508 17.0212 175.856 16.7606 177.398 16.7606C178.622 16.7606 179.596 16.9759 180.322 17.4066C181.047 17.8372 181.591 18.3926 181.954 19.0726C182.316 19.7526 182.554 20.4666 182.668 21.2146C182.781 21.9399 182.838 22.6086 182.838 23.2206V34.9846ZM185.017 26.0086C185.017 24.2406 185.345 22.6652 186.003 21.2826C186.683 19.8772 187.612 18.7779 188.791 17.9846C189.969 17.1686 191.318 16.7606 192.837 16.7606C193.993 16.7606 195.058 17.0326 196.033 17.5766C197.007 18.0979 197.744 18.8232 198.243 19.7526V10.1646H204.703V27.8446C204.703 28.4566 204.793 28.8872 204.975 29.1366C205.156 29.3632 205.473 29.4992 205.927 29.5446V34.9846C204.816 35.2112 203.909 35.3246 203.207 35.3246C201.008 35.3246 199.739 34.4972 199.399 32.8426L199.263 32.1966C198.651 33.2846 197.823 34.0779 196.781 34.5766C195.738 35.0752 194.627 35.3246 193.449 35.3246C191.817 35.3246 190.366 34.9279 189.097 34.1346C187.827 33.3412 186.83 32.2419 186.105 30.8366C185.379 29.4312 185.017 27.8219 185.017 26.0086ZM198.277 28.0486V24.8526C197.982 24.0592 197.517 23.4246 196.883 22.9486C196.271 22.4499 195.625 22.2006 194.945 22.2006C194.015 22.2006 193.233 22.5859 192.599 23.3566C191.987 24.1272 191.681 25.0566 191.681 26.1446C191.681 27.2552 192.009 28.1619 192.667 28.8646C193.324 29.5446 194.174 29.8846 195.217 29.8846C196.418 29.8846 197.438 29.2726 198.277 28.0486ZM207.594 29.5786C207.594 28.3772 207.923 27.3232 208.58 26.4166C209.237 25.4872 210.144 24.7619 211.3 24.2406C212.479 23.7192 213.816 23.4586 215.312 23.4586C216.763 23.4586 217.964 23.6852 218.916 24.1386V23.5946C218.916 22.7559 218.667 22.1326 218.168 21.7246C217.692 21.3166 216.91 21.1126 215.822 21.1126C214.825 21.1126 213.884 21.2826 213 21.6226C212.139 21.9399 211.232 22.4159 210.28 23.0506L208.41 19.0386C210.767 17.5199 213.453 16.7606 216.468 16.7606C219.301 16.7606 221.489 17.4066 223.03 18.6986C224.594 19.9679 225.376 21.8606 225.376 24.3766V27.8446C225.376 28.4566 225.467 28.8872 225.648 29.1366C225.829 29.3632 226.147 29.4992 226.6 29.5446V34.9846C226.079 35.0979 225.58 35.1772 225.104 35.2226C224.651 35.2906 224.243 35.3246 223.88 35.3246C222.724 35.3246 221.84 35.1206 221.228 34.7126C220.639 34.2819 220.253 33.6586 220.072 32.8426L219.936 32.1966C218.304 34.2819 216.275 35.3246 213.85 35.3246C212.671 35.3246 211.606 35.0752 210.654 34.5766C209.702 34.0779 208.954 33.3979 208.41 32.5366C207.866 31.6526 207.594 30.6666 207.594 29.5786ZM218.066 30.0206C218.633 29.6352 218.916 29.2159 218.916 28.7626V27.4366C218.553 27.3006 218.134 27.1872 217.658 27.0966C217.205 27.0059 216.797 26.9606 216.434 26.9606C215.663 26.9606 215.006 27.1532 214.462 27.5386C213.941 27.9239 213.68 28.4112 213.68 29.0006C213.68 29.4992 213.873 29.9072 214.258 30.2246C214.666 30.5419 215.176 30.7006 215.788 30.7006C216.627 30.7006 217.386 30.4739 218.066 30.0206ZM236.108 35.3246C234.544 35.3246 233.002 35.0752 231.484 34.5766C229.988 34.0552 228.718 33.3072 227.676 32.3326L229.886 28.3546C230.996 29.0799 232.062 29.6466 233.082 30.0546C234.124 30.4626 235.065 30.6666 235.904 30.6666C236.833 30.6666 237.298 30.3946 237.298 29.8506C237.298 29.5559 237.105 29.3179 236.72 29.1366C236.357 28.9552 235.768 28.7399 234.952 28.4906C233.546 27.9919 232.368 27.5272 231.416 27.0966C230.486 26.6659 229.784 26.1446 229.308 25.5326C228.854 24.8979 228.628 24.0592 228.628 23.0166C228.628 21.1806 229.308 19.6732 230.668 18.4946C232.028 17.3159 233.909 16.7266 236.312 16.7266C237.513 16.7266 238.714 16.9192 239.916 17.3046C241.14 17.6672 242.318 18.3359 243.452 19.3106L241.004 23.2546C239.87 22.5519 238.907 22.0532 238.114 21.7586C237.343 21.4639 236.652 21.3166 236.04 21.3166C235.088 21.3166 234.612 21.6339 234.612 22.2686C234.612 22.6086 234.793 22.8692 235.156 23.0506C235.518 23.2319 236.096 23.4359 236.89 23.6626C238.431 24.1159 239.689 24.5806 240.664 25.0566C241.638 25.5099 242.352 26.0652 242.806 26.7226C243.282 27.3799 243.52 28.2412 243.52 29.3066C243.52 31.1879 242.851 32.6612 241.514 33.7266C240.199 34.7919 238.397 35.3246 236.108 35.3246Z" fill="#262222"/>
<path d="M14.7613 44.0345H7.56129C4.66129 44.0345 2.46129 41.5264 2.76129 38.7173L4.86129 17.6489C5.16129 15.1407 7.16129 13.2346 9.66129 13.2346H16.7613C14.2613 13.2346 12.1613 15.1407 11.9613 17.6489L9.96129 38.8176C9.76129 41.5264 11.9613 44.0345 14.7613 44.0345Z" stroke="#262222" stroke-width="4"/>
<path d="M40.8612 38.8346C41.0612 41.6346 38.8612 44.0346 36.0612 44.0346H14.7612C11.9612 44.0346 9.66119 41.5346 9.96119 38.7346L11.9612 17.6346C12.1612 15.1346 14.2612 13.2346 16.7612 13.2346H34.4612C36.9612 13.2346 39.0612 15.2346 39.2612 17.7346L40.8612 38.8346Z" stroke="#262222" stroke-width="4"/>
<path d="M29.4613 6.83457C26.5613 1.63457 19.0613 1.63457 16.1613 6.83457" stroke="#262222" stroke-width="4"/>
<path d="M30.2613 44.0346H21.3613C20.9613 44.0346 20.6613 43.7346 20.6613 43.3346V36.9346C20.6613 36.5346 20.9613 36.2346 21.3613 36.2346H30.2613C30.6613 36.2346 30.9613 36.5346 30.9613 36.9346V43.3346C30.9613 43.7346 30.5613 44.0346 30.2613 44.0346Z" stroke="#262222" stroke-width="4"/>
</svg>
